<?xml version="1.0" encoding="utf-8"?>
<!-- Generator: Adobe Illustrator 21.1.0, SVG Export Plug-In . SVG Version: 6.00 Build 0)  -->
<svg version="1.0" id="Ebene_1" xmlns="http://www.w3.org/2000/svg" x="0px" y="0px"
     viewBox="0 0 283.5 42.5" width="220" xml:space="preserve">
<style type="text/css">
	.st0{fill:#060506;}
</style>
    <g>
	<g id="Deutsch">
		<path class="st0" d="M38.2,26.3v14.3h-38l38-38v18h9v-18l38,38h-38V26.3H38.2z M53,16.4V35h18.6L53,16.4z M13.8,35h18.6V16.4
			L13.8,35z" style="fill: #44b827;"/>
        <path class="st0" d="M125.6,33.7c0-9.5,0-17.7,0-17.7c0-1.7-2.1-1.4-2.1-1.4v-1.3h13.3v1.4c0,0-2-0.3-2,1.4c0,0,0,17.6,0,18.9
			c0,2.6,2.5,3.3,4.4,2.9c2.8-0.7,2.9-2.5,2.9-4.6V16.2c0-1.7-2-1.4-2-1.4v-1.4h7.8v1.4c0,0-2-0.3-2,1.5c0,6,0,8.1,0,17.7
			C145.8,44.1,125.6,44.1,125.6,33.7z"/>
        <path class="st0" d="M167.7,32.1V21.6h-1.1c-0.4,2.4-0.9,3.3-5,3.3v-9.4c2.9,0,4.9-0.4,6.6,1.5c1.1,1.3,1.3,2.1,1.7,4
			c0.5,0,1.2,0,1.2,0v-7.9h-20.7v1.4c0,0,2.2-0.3,2.2,1.5c0,0,0,20.6,0,21.7c0,1.7-2.1,1.5-2.1,1.5v1.4h13.2v-1.4c0,0-2,0.3-2-1.4
			v-9.6c4.1,0,4.8,1.1,5.1,3.9H167.7z"/>
        <path class="st0" d="M109.2,28.6v9.2c0,1.7-1.9,1.5-1.9,1.5v1.4h13v-1.4c0,0-2,0.4-2-1.5V16c0-1.8,2-1.4,2-1.4v-1.4
			c0,0-13,0.1-13,0v1.4c0,0,1.9-0.3,1.9,1.4v8.5h-5.7V16c0-1.7,1.9-1.4,1.9-1.4v-1.4h-13v1.4c0,0,2-0.4,2,1.4v21.8
			c0,1.8-2,1.5-2,1.5v1.4h13v-1.4c0,0-1.9,0.3-1.9-1.5v-9.2H109.2z"/>
        <path class="st0" d="M197.1,28.6v9.2c0,1.7-1.9,1.5-1.9,1.5v1.4h12.9v-1.4c0,0-1.8,0.4-1.8-1.4V16.1c0-1.8,2-1.4,2-1.4v-1.4
			c0,0-13,0.1-13,0v1.4c0,0,1.9-0.3,1.9,1.4v8.5h-5.7v-8.5c0-1.7,1.9-1.4,1.9-1.4v-1.4h-13v1.4c0,0,2-0.4,2,1.4v21.8
			c0,1.8-2,1.5-2,1.5v1.4h13v-1.4c0,0-1.9,0.3-1.9-1.5v-9.2L197.1,28.6L197.1,28.6z"/>
        <path class="st0" d="M281.3,12.9c0-0.1,1.1,0,1.2,0v8.6h-1.4c-0.4-1.2-1.4-4.7-4.8-5.5c-2-0.4-4.8-0.8-5.9,1.4
			c-0.9,2.6,2.6,3.6,4.2,4.7c3.8,1.9,8.1,3.8,8.9,8.1c0.6,3.4-0.4,5.7-2,7.8c-2,2.8-8,4.1-12.6,2.6c-2.2-0.8-3.8-1.6-4.5,0.2h-1.3
			v-9.4h1.8c0.2,2.6,0.8,3.5,2.2,5.1c1.5,1.3,3.3,1.6,5.5,1.8c1.5,0,3.4-0.4,3.8-2.1c0.6-4-5.2-4.7-8.4-7.1
			c-2.2-1.5-4.3-3.7-4.8-5.6c-1.1-4.9,1.1-8,4.2-9.8c4.1-2.1,10.1-0.7,11.9,0.1C280.7,14.6,280.8,13.6,281.3,12.9z"/>
        <path class="st0" d="M237.4,33.7c0-9.5,0-17.7,0-17.7c0-1.7-2.1-1.4-2.1-1.4v-1.3h13.2v1.4c0,0-2-0.3-2,1.4c0,0,0,17.6,0,18.9
			c0,2.6,2.5,3.3,4.4,2.9c2.8-0.7,2.9-2.5,2.9-4.6V16.2c0-1.7-2-1.4-2-1.4v-1.4h7.8v1.4c0,0-2-0.3-2,1.5c0,6,0,8.1,0,17.7
			C257.7,44.1,237.4,44.1,237.4,33.7z"/>
        <path class="st0" d="M227.4,13.2c0,0,5.5,23,5.7,24c0.8,2.3,2.6,2,2.6,2v1.4h-13.8c0,0.1,0-1.4,0-1.4s2.6,0.4,2.2-1.2
			c-0.6-2.7-0.7-2.9-0.7-2.9H216c0,0-0.3,1.3-0.6,2.8c-0.3,1.6,1.7,1.3,1.7,1.3v1.4h-7.8v-1.4c0,0,1.3,0.3,1.9-1.7l5.8-24.3
			L227.4,13.2L227.4,13.2z M219.5,20.2l-2.6,11.1h5.5l-2.6-11.1H219.5z"/>
	</g>
        <g id="Hilfslinien">
	</g>
</g>
</svg>
